<?xml version="1.0" encoding="UTF-8"?>
<svg width="32px" height="32px" viewBox="0 0 32 32" version="1.1" xmlns="http://www.w3.org/2000/svg" xmlns:xlink="http://www.w3.org/1999/xlink">
    <!-- Generator: Sketch 53.2 (72643) - https://sketchapp.com -->
    <title>Icons/Work/crowe</title>
    <desc>Created with Sketch.</desc>
    <g id="Icons/Work/crowe" stroke="none" stroke-width="1" fill="none" fill-rule="evenodd">
        <rect id="Rectangle" x="0" y="0" width="32" height="32"></rect>
        <g id="Crowe_Chizek" transform="translate(3.000000, 5.000000)" fill="#727079">
            <g id="Group-8">
                <path d="M12.7726154,0.198461538 C12.7338462,0.125538462 12.6821538,0.0886153846 12.6295385,0.0867692308 C12.576,0.0858461538 12.5215385,0.12 12.4790769,0.191076923 L0.0544615385,21.1163077 C0.012,21.1864615 -0.00553846154,21.2252308 0.000923076923,21.2298462 C0.00830769231,21.2344615 0.0387692308,21.2067692 0.0923076923,21.1430769 L12.3821538,6.29261538 C12.4356923,6.22892308 12.4661538,6.20030769 12.4744615,6.20584615 C12.4818462,6.21046154 12.4652308,6.24923077 12.4246154,6.32123077 L3.91569231,21.1144615 C3.87415385,21.1855385 3.85846154,21.2243077 3.86584615,21.2298462 C3.87323077,21.2344615 3.90461538,21.2067692 3.95723077,21.1430769 L14.0270769,8.97876923 C14.0796923,8.916 14.112,8.88738462 14.1203077,8.89292308 C14.1295385,8.89846154 14.1147692,8.93815385 14.0750769,9.01107692 L7.45569231,21.1107692 C7.416,21.1827692 7.40123077,21.2224615 7.40953846,21.2289231 C7.41876923,21.2344615 7.45015385,21.2067692 7.50276923,21.1430769 L15.5335385,11.4424615 C15.5861538,11.3778462 15.6553846,11.3464615 15.7236923,11.3473846 C15.7929231,11.3473846 15.8612308,11.3806154 15.912,11.4452308 L23.7027692,21.1393846 C23.7535385,21.204 23.7849231,21.2326154 23.7941538,21.2261538 C23.8024615,21.2206154 23.7886154,21.1809231 23.7507692,21.1089231 L12.7726154,0.198461538" id="Fill-7"></path>
            </g>
        </g>
    </g>
</svg>