<?xml version="1.0" encoding="UTF-8"?>
<svg width="16px" height="16px" viewBox="0 0 12 12" version="1.1" xmlns="http://www.w3.org/2000/svg" xmlns:xlink="http://www.w3.org/1999/xlink">
    <!-- Generator: Sketch 53.2 (72643) - https://sketchapp.com -->
    <title>outside_link</title>
    <desc>Created with Sketch.</desc>
    <g id="Symbols" stroke="none" stroke-width="1" fill="none" fill-rule="evenodd">
        <g id="Icons/Light-blue/External-link" transform="translate(-3.000000, -3.000000)">
            <g id="outside_link">
                <rect id="Rectangle" x="0" y="0" width="18" height="18"></rect>
                <path d="M13.9024666,9.21112149 C13.9024666,8.90394967 14.153415,8.67631341 14.4509877,8.66397168 C14.7471891,8.65025866 14.9995088,8.92589052 14.9995088,9.2124928 C14.9995088,9.30848399 14.9995088,9.40310388 14.9995088,9.49909508 C14.9995088,10.0393884 14.9995088,10.5783104 14.9995088,11.1186037 C14.9995088,11.5258806 14.9995088,11.9317862 14.9995088,12.3390631 C14.9995088,12.7518253 14.9035176,13.1426466 14.7307335,13.5156409 C14.5291519,13.9503439 14.1863263,14.3151104 13.7886484,14.5784006 C13.3800002,14.8499185 12.8822173,14.9911627 12.3926622,15.0007618 C12.3323249,15.0021331 12.2706163,15.0007618 12.2102789,15.0007618 C11.8633393,15.0007618 11.5163997,15.0007618 11.1694601,15.0007618 C10.6195677,15.0007618 10.0696753,15.0007618 9.51978289,15.0007618 C8.92463748,15.0007618 8.32949207,15.0007618 7.73434667,15.0007618 C7.25164809,15.0007618 6.76894951,15.0007618 6.28625093,15.0007618 C6.073699,15.0007618 5.86114707,15.0021331 5.64859514,15.0007618 C4.71199534,14.9966479 3.82064853,14.4892659 3.35303428,13.674712 C3.12265542,13.2742916 3.00198077,12.8149052 3.00060947,12.3541475 C3.00060947,12.2938101 3.00060947,12.2348441 3.00060947,12.1758781 C3.00060947,11.8138542 3.00060947,11.4504589 3.00060947,11.088435 C3.00060947,10.5316861 3.00060947,9.97493714 3.00060947,9.41818821 C3.00060947,8.82441411 3.00060947,8.23201131 3.00060947,7.6382372 C3.00060947,7.16650905 3.00060947,6.69478089 3.00060947,6.22305273 C3.00060947,6.02969904 2.99923817,5.83771665 3.00060947,5.64573426 C3.00472338,4.67073799 3.56421491,3.72179646 4.4487052,3.29120739 C4.82855607,3.10471021 5.235833,3.0032338 5.66093686,3.0032338 C5.79669584,3.0032338 5.93382612,3.0032338 6.06958509,3.0032338 C6.63044793,3.0032338 7.19131077,3.0032338 7.7521736,3.0032338 C8.0977419,3.0032338 8.44468151,3.0032338 8.79162111,3.0032338 C9.09879293,3.0032338 9.3264292,3.25418221 9.34014222,3.55175492 C9.35385525,3.84795632 9.07822339,4.10027603 8.79162111,4.10027603 C8.65174823,4.10027603 8.51050404,4.10027603 8.37063116,4.10027603 C7.77822836,4.10027603 7.18445425,4.10027603 6.59205145,4.10027603 C6.34933086,4.10027603 6.10661027,4.10027603 5.86388967,4.10027603 C5.69659074,4.10027603 5.5292918,4.09753342 5.36336416,4.11947427 C5.41135976,4.11398906 5.46072666,4.10713254 5.50872225,4.10027603 C5.32496768,4.12633078 5.14669832,4.17432638 4.97665678,4.24563412 C5.02053846,4.22780719 5.06442015,4.20860895 5.10830184,4.19078201 C4.94237421,4.26071845 4.78741699,4.35259574 4.6434302,4.46229996 C4.68045537,4.4335026 4.71748055,4.40470525 4.75450572,4.37590789 C4.61326154,4.48561211 4.48573038,4.61314327 4.37602616,4.75438746 C4.40482352,4.71736228 4.43362087,4.68033711 4.46241823,4.64331193 C4.35271401,4.78592742 4.26220803,4.94225594 4.19090028,5.10818357 C4.20872722,5.06430188 4.22792546,5.0204202 4.24575239,4.97653851 C4.17444465,5.14795135 4.12644905,5.32484941 4.1003943,5.50860399 C4.10587951,5.46060839 4.11273602,5.41124149 4.11959254,5.36324589 C4.10725081,5.45786578 4.1003943,5.55248567 4.1003943,5.64847687 C4.099023,5.89668267 4.1003943,6.14625978 4.1003943,6.39583688 C4.1003943,6.96767014 4.1003943,7.54087471 4.1003943,8.11270797 C4.1003943,8.78327503 4.1003943,9.45521339 4.1003943,10.1257804 C4.1003943,10.6729303 4.1003943,11.2187088 4.1003943,11.7658586 C4.1003943,12.0538322 4.08256736,12.3527762 4.11959254,12.6393784 C4.11410733,12.5913828 4.10725081,12.5420159 4.1003943,12.4940204 C4.12644905,12.6777749 4.17444465,12.8560443 4.24575239,13.0260858 C4.22792546,12.9822041 4.20872722,12.9383225 4.19090028,12.8944408 C4.26083672,13.0603684 4.35271401,13.2153256 4.46241823,13.3593124 C4.43362087,13.3222872 4.40482352,13.2852621 4.37602616,13.2482369 C4.48573038,13.3894811 4.61326154,13.5170122 4.75450572,13.6267164 C4.71748055,13.5979191 4.68045537,13.5691217 4.6434302,13.5403244 C4.78604569,13.6500286 4.94237421,13.7405346 5.10830184,13.8118423 C5.06442015,13.7940154 5.02053846,13.7748171 4.97665678,13.7569902 C5.14806962,13.828298 5.32496768,13.8762936 5.50872225,13.9023483 C5.46072666,13.8968631 5.41135976,13.8900066 5.36336416,13.8831501 C5.45798405,13.8954918 5.55260394,13.9023483 5.64859514,13.9023483 C5.89680094,13.9037196 6.14637805,13.9023483 6.39595515,13.9023483 C6.96778841,13.9023483 7.54099298,13.9023483 8.11282624,13.9023483 C8.7833933,13.9023483 9.45533166,13.9023483 10.1258987,13.9023483 C10.6730485,13.9023483 11.218827,13.9023483 11.7659768,13.9023483 C12.0539504,13.9023483 12.3528944,13.9201752 12.6394967,13.8831501 C12.5915011,13.8886353 12.5421342,13.8954918 12.4941386,13.9023483 C12.6778932,13.8762936 12.8561626,13.828298 13.0262041,13.7569902 C12.9823224,13.7748171 12.9384407,13.7940154 12.894559,13.8118423 C13.0604867,13.7419059 13.2154439,13.6500286 13.3594307,13.5403244 C13.3224055,13.5691217 13.2853803,13.5979191 13.2483551,13.6267164 C13.3895993,13.5170122 13.5171305,13.3894811 13.6268347,13.2482369 C13.5980374,13.2852621 13.56924,13.3222872 13.5404426,13.3593124 C13.6501469,13.2166969 13.7406528,13.0603684 13.8119606,12.8944408 C13.7941337,12.9383225 13.7749354,12.9822041 13.7571085,13.0260858 C13.8284162,12.854673 13.8764118,12.6777749 13.9024666,12.4940204 C13.8969814,12.5420159 13.8901249,12.5913828 13.8832683,12.6393784 C13.9079518,12.4501387 13.9024666,12.2595276 13.9024666,12.0689165 C13.9024666,11.4957119 13.9024666,10.9225074 13.9024666,10.3493028 C13.9024666,9.96945193 13.9024666,9.59097236 13.9024666,9.21112149 Z M14.9959521,3.50549444 C14.9976439,3.51987157 14.9988348,3.53438562 14.9995088,3.54901231 C14.9995088,3.57754477 14.9995088,3.56327854 14.9995088,3.54901231 C15.0001744,3.56338987 15.0001583,3.57766405 14.9994923,3.59181099 C14.9995088,3.70233332 14.9995088,3.81285565 14.9995088,3.92337797 C14.9995088,4.47052778 14.9995088,5.01630629 14.9995088,5.5634561 C14.9995088,5.90628179 14.9995088,6.25047879 14.9995088,6.59330448 C14.9995088,6.90047631 14.7485604,7.12811257 14.4509877,7.1418256 C14.1547863,7.15553863 13.9024666,6.87990677 13.9024666,6.59330448 C13.9024666,6.46851593 13.9024666,6.34372738 13.9024666,6.21893883 C13.9024666,5.77010469 13.9024666,5.32219332 13.9024666,4.8736908 C13.538094,5.23806342 13.1742588,5.60189858 12.8095383,5.96661911 C12.2857006,6.49045678 11.7632342,7.01292314 11.2407679,7.5353895 C10.8088075,7.96734987 10.3754758,8.40068155 9.94351545,8.83264193 C9.76250348,9.01365389 9.58012021,9.19603716 9.39910824,9.37704913 C9.1824424,9.59371497 8.84235931,9.57725934 8.62295087,9.37704913 C8.40491373,9.17683892 8.41999806,8.80384457 8.62295087,8.60089176 C8.62706478,8.59677785 8.62980738,8.59403524 8.63254999,8.59129264 C8.84921583,8.36914159 9.07273818,8.15110444 9.29214663,7.931696 C9.74604785,7.47779478 10.1985778,7.02526486 10.652479,6.57136364 C11.1763166,6.04752598 11.698783,5.52505962 12.2212494,5.00259326 C12.522579,4.70126362 12.824576,4.39926667 13.1263092,4.09753342 C12.896494,4.09753342 12.6666402,4.09753342 12.4365439,4.09753342 C12.0937182,4.09753342 11.7495212,4.09753342 11.4066955,4.09753342 C11.0995237,4.09753342 10.8718874,3.84658501 10.8581744,3.54901231 C10.8444614,3.25281091 11.1200932,3.0004912 11.4066955,3.0004912 C11.5314841,3.0004912 11.6562726,3.0004912 11.7810612,3.0004912 C12.328211,3.0004912 12.8739895,3.0004912 13.4211393,3.0004912 C13.763965,3.0004912 14.108162,3.0004912 14.4509877,3.0004912 C14.5754836,3.0004912 14.6869146,3.04171349 14.7763335,3.11055486 C14.7981216,3.12577968 14.819094,3.14258398 14.8390664,3.16093362 C14.9373229,3.25115657 14.9882377,3.37646808 14.9959521,3.50549444 Z" id="Combined-Shape" fill="#83ABEE"></path>
            </g>
        </g>
    </g>
</svg>