<?xml version="1.0" encoding="UTF-8"?>
<svg width="32px" height="32px" viewBox="0 0 32 32" version="1.1" xmlns="http://www.w3.org/2000/svg" xmlns:xlink="http://www.w3.org/1999/xlink">
    <!-- Generator: Sketch 53.2 (72643) - https://sketchapp.com -->
    <title>Icons/Work/Github</title>
    <desc>Created with Sketch.</desc>
    <g id="Icons/Work/Github" stroke="none" stroke-width="1" fill="none" fill-rule="evenodd">
        <rect id="Rectangle" x="0" y="0" width="32" height="32"></rect>
        <path d="M15.998895,4 C9.37327726,4 4,9.37254059 4,16.0003683 C4,21.3021885 7.43804291,25.7995641 12.2065134,27.3863532 C12.8069002,27.4968538 13.0256914,27.1263084 13.0256914,26.8080665 C13.0256914,26.5237116 13.015378,25.768624 13.0094846,24.7674883 C9.67162896,25.4923724 8.96737162,23.1585991 8.96737162,23.1585991 C8.42149851,21.7721845 7.63473403,21.4031124 7.63473403,21.4031124 C6.54519783,20.6590749 7.71724117,20.6738083 7.71724117,20.6738083 C8.92169803,20.7585254 9.55523497,21.9106787 9.55523497,21.9106787 C10.6256177,23.7442524 12.364161,23.2145861 13.0477915,22.9073943 C13.1568188,22.1324166 13.4669572,21.6034869 13.8095092,21.3036619 C11.1449707,21.0008901 8.3434114,19.9710243 8.3434114,15.3727248 C8.3434114,14.062924 8.8111974,12.9910679 9.57880843,12.1527364 C9.45504773,11.849228 9.04324872,10.6285644 9.69667577,8.97694834 C9.69667577,8.97694834 10.7037048,8.6542865 12.9962246,10.2071887 C13.95316,9.94051383 14.9800792,9.80791307 16.0003683,9.80275638 C17.0199208,9.80791307 18.0461033,9.94051383 19.0045121,10.2071887 C21.2955585,8.6542865 22.3011142,8.97694834 22.3011142,8.97694834 C22.9560146,10.6285644 22.5442156,11.849228 22.4211916,12.1527364 C23.1902759,12.9910679 23.6543786,14.062924 23.6543786,15.3727248 C23.6543786,19.982811 20.8483993,20.9972068 18.1757574,21.2940851 C18.6059732,21.6646306 18.9897787,22.3968814 18.9897787,23.5166211 C18.9897787,25.1203536 18.9750453,26.4146843 18.9750453,26.8080665 C18.9750453,27.129255 19.1916265,27.5027472 19.8001166,27.3856165 C24.5649038,25.7951441 28,21.3007152 28,16.0003683 C28,9.37254059 22.6267227,4 15.998895,4" id="Fill-4" fill="#727079"></path>
    </g>
</svg>