<?xml version="1.0" encoding="UTF-8"?>
<svg width="32px" height="32px" viewBox="0 0 32 32" version="1.1" xmlns="http://www.w3.org/2000/svg" xmlns:xlink="http://www.w3.org/1999/xlink">
    <!-- Generator: Sketch 53.2 (72643) - https://sketchapp.com -->
    <title>Icons/Work/SRS</title>
    <desc>Created with Sketch.</desc>
    <g id="Icons/Work/SRS" stroke="none" stroke-width="1" fill="none" fill-rule="evenodd">
        <rect id="Rectangle" x="0" y="0" width="32" height="32"></rect>
        <g id="Group-2" transform="translate(9.000000, 4.000000)" fill="#727079">
            <path d="M0.181018868,19.3622717 C0.339741879,19.168707 0.500400536,18.9480434 0.661059194,18.7544787 C0.980440862,18.3383147 1.33272852,18.0808737 1.77986286,18.4660674 C2.00439785,18.659632 4.34072314,20.8972394 7.18805911,20.8972394 C9.77988974,20.8972394 11.4755161,19.2654894 11.4755161,17.3762984 C11.4755161,15.1677258 9.55535475,13.8572931 5.8756908,12.3203898 C2.3605568,10.7854222 0.246830848,9.34530118 0.246830848,5.69660758 C0.246830848,3.52094094 1.9734275,0 7.06224209,0 C9.00223768,0.0262992683 10.8967537,0.591236316 12.5343147,1.63174998 C12.7278793,1.7285323 13.1150086,2.1117903 12.7278793,2.72151894 C12.6001267,2.91508359 12.472374,3.13768294 12.34075,3.32931194 C12.0523387,3.77838192 11.732957,3.91000588 11.2200107,3.61578762 C10.9954757,3.4899706 8.98046775,2.1446963 7.0293361,2.1446963 C3.63614783,2.1446963 2.61219084,4.32036293 2.61219084,5.66370159 C2.61219084,7.80839788 4.24394082,9.05688986 6.93255377,10.1756935 C11.2529167,11.9351962 14.0363763,13.5669461 14.0363763,17.2795161 C14.0363763,20.6068924 10.8677231,23.04 7.12418278,23.04 C3.3477365,23.04 0.786876214,20.8314274 0.372647869,20.4481694 C0.115206887,20.22557 -0.208046074,19.968129 0.179083221,19.360336" id="Path-Copy-4"></path>
        </g>
    </g>
</svg>