<?xml version="1.0" encoding="UTF-8"?>
<svg width="32px" height="32px" viewBox="0 0 32 32" version="1.1" xmlns="http://www.w3.org/2000/svg" xmlns:xlink="http://www.w3.org/1999/xlink">
    <!-- Generator: Sketch 53.2 (72643) - https://sketchapp.com -->
    <title>Icons/Work/TASC</title>
    <desc>Created with Sketch.</desc>
    <g id="Icons/Work/TASC" stroke="none" stroke-width="1" fill="none" fill-rule="evenodd">
        <rect id="Rectangle" x="0" y="0" width="32" height="32"></rect>
        <g id="Group-Copy" transform="translate(4.000000, 4.000000)" fill="#727079">
            <path d="M21.8835972,18.5685868 C20.5916113,20.4300233 18.903844,21.8093547 16.7810172,22.7459303 L16.7810172,22.4623744 C16.7810172,17.2706576 16.7819167,12.0786404 16.7774192,6.88662316 C16.7771194,6.70970109 16.8262922,6.58354273 16.9552209,6.46399266 C17.3336118,6.1128519 17.7012086,5.75029681 18.0736028,5.3931485 C18.1446636,5.32496292 18.2193223,5.26068223 18.3458524,5.1459382 L18.3458524,13.519549 L23.8631033,13.519549 C23.5923529,15.3803848 22.9357158,17.0528842 21.8835972,18.5685868 L21.8835972,18.5685868 Z M14.4336145,23.467436 C14.0240408,23.5145952 13.6174655,23.5872864 13.1812066,23.6536697 C13.1746103,23.5194012 13.1665148,23.4298888 13.1665148,23.3403765 C13.1659151,19.0056354 13.1671144,14.6708942 13.1623171,10.3361531 C13.1620172,10.1574288 13.2183861,10.0351753 13.3464153,9.91592565 C13.7406974,9.54826415 14.1244853,9.16918832 14.5130706,8.7952189 C14.5658414,8.74445518 14.6222103,8.69759636 14.7250534,8.60598136 L14.7250534,8.90575765 C14.7247536,13.6415021 14.7229546,18.377547 14.7304504,23.1132914 C14.7307503,23.3469848 14.6632876,23.4407024 14.4336145,23.467436 L14.4336145,23.467436 Z M3.11427017,4.25802366 C7.4465759,-1.21875097 16.3852359,-1.61645018 21.2182649,4.25802366 L3.11427017,4.25802366 Z M11.106953,23.6368486 C10.8733821,23.6092139 10.6554025,23.5884879 10.439222,23.5569483 C10.2188438,23.5245076 10.0008643,23.4731431 9.77988639,23.4449077 C9.60838118,23.4229802 9.55650984,23.3433802 9.55710951,23.1709638 C9.5640057,21.8676278 9.56070752,20.5642918 9.56070752,19.2609558 C9.56070752,17.4328612 9.56340603,15.6050668 9.55680968,13.7772725 C9.55621001,13.5916395 9.60958051,13.4603748 9.74480578,13.3351175 C10.18946,12.9233006 10.6242198,12.5003697 11.106953,12.0398917 L11.106953,23.6368486 Z M7.2595427,22.5525229 C7.2595427,22.6268921 7.25205501,22.7009625 7.24576535,22.8237164 C5.44482621,22.0465739 3.96525871,20.9280502 2.75554756,19.4561985 C1.38440181,17.7881197 0.543084989,15.8828961 0.209433534,13.7178284 C0.309768577,13.7106603 0.389437596,13.6999082 0.469106615,13.6999082 C2.64562827,13.6990121 4.82214993,13.7022975 6.99867159,13.6942334 C7.21910917,13.6936361 7.26433482,13.7680052 7.26403531,13.9705043 C7.25834467,16.8311772 7.26014171,19.6918501 7.2595427,22.5525229 Z" id="Fill-1"></path>
        </g>
    </g>
</svg>