<?xml version="1.0" encoding="UTF-8"?>
<svg width="32px" height="32px" viewBox="0 0 32 32" version="1.1" xmlns="http://www.w3.org/2000/svg" xmlns:xlink="http://www.w3.org/1999/xlink">
    <!-- Generator: Sketch 53.2 (72643) - https://sketchapp.com -->
    <title>Icons/Work/BOK</title>
    <desc>Created with Sketch.</desc>
    <g id="Icons/Work/BOK" stroke="none" stroke-width="1" fill="none" fill-rule="evenodd">
        <rect id="Rectangle" x="0" y="0" width="32" height="32"></rect>
        <path d="M28,19.1655041 L28,22.2305644 L21.8500951,28.6620165 C21.4270133,29.1048827 20.7391249,29.2007609 20.2536462,29.2007609 L12.4905517,29.2007609 C11.5682942,29.2007609 11.1041218,28.8857324 10.7525682,28.5585289 L4,22.2929613 L4,19.5444515 L11.7737476,26.7596703 C12.0507292,27.0168675 12.5849081,27.1644895 12.9729867,27.1644895 L20.3236525,27.1644895 C21.1013316,27.1644895 21.5000634,26.8875079 21.8074826,26.56487 L27.0731769,21.0587191 L25.6152188,19.7042486 L20.1288523,25.4432467 C19.8092581,25.7780596 19.3785669,25.9272036 19.0391883,25.9272036 L13.3625872,25.9272036 C12.8299302,25.9272036 12.2866202,25.7095751 11.9761573,25.4219404 L4,18.0195308 L4,15.269499 L12.9973367,23.620038 C13.2175964,23.8336568 13.5155723,23.9480092 13.822194,23.9365885 L18.8443881,23.9365885 C19.5490171,23.9365885 19.7544705,23.6930881 20.020799,23.4145847 L24.5316424,18.696766 L23.2197844,17.4792644 L18.4974001,22.4192771 C18.2721623,22.6566899 18.1428028,22.8210526 17.608624,22.8210526 L13.9454661,22.8210526 C13.7278377,22.8210526 13.4752061,22.8027901 13.1982245,22.5471148 L4,14.0109068 L4,10.9960685 L10.1757768,4.53874445 C10.5988586,4.09587825 11.286747,4 11.7707039,4 L19.5353202,4 C20.4560558,4 20.9202283,4.31655041 21.2717819,4.64223209 L27.9984781,10.8849715 L27.9984781,13.6350032 L20.2490805,6.44261256 C19.9720989,6.18541535 19.4379201,6.03779328 19.0498415,6.03779328 L11.6991756,6.03779328 C10.9230184,6.03779328 10.5242866,6.31477489 10.2153456,6.63741281 L4.94965124,12.1435637 L6.40760938,13.4980342 L11.8939759,7.75903614 C12.2135701,7.42422321 12.6442613,7.27507926 12.9836398,7.27507926 L18.660241,7.27507926 C19.1928979,7.27507926 19.736208,7.49270767 20.0466709,7.7818643 L27.9984781,15.1599239 L27.9984781,17.9084337 L19.0254914,9.58072289 C18.759163,9.33265694 18.4913126,9.26417248 18.2006341,9.26417248 L13.1784401,9.26417248 C12.4753329,9.26417248 12.2698795,9.50919467 12.003551,9.78617628 L7.49270767,14.5039949 L8.80304375,15.7214965 L13.5269499,10.7814838 C13.7521877,10.544071 13.8815472,10.3797083 14.4157261,10.3797083 L18.078884,10.3797083 C18.3554146,10.3618054 18.6266887,10.4612542 18.8261256,10.6536462 L28,19.1655041 Z M18.2843373,20.503234 L22.136208,16.4733037 L17.9525682,12.5909956 C17.7866836,12.437286 17.6664553,12.4266328 17.5203551,12.4266328 L14.4248573,12.4266328 C14.1950539,12.4266328 14.0550412,12.3672796 13.7400127,12.6975269 L9.88814204,16.7259353 L14.0717819,20.6097654 C14.1839424,20.7265546 14.3425727,20.7868788 14.5039949,20.7741281 L17.5994927,20.7741281 C17.8292961,20.7741281 17.9677869,20.8334813 18.2843373,20.503234 Z" id="Combined-Shape" fill="#727079"></path>
    </g>
</svg>