<?xml version="1.0" encoding="UTF-8"?>
<svg width="32px" height="32px" viewBox="0 0 32 32" version="1.1" xmlns="http://www.w3.org/2000/svg" xmlns:xlink="http://www.w3.org/1999/xlink">
    <!-- Generator: Sketch 53.2 (72643) - https://sketchapp.com -->
    <title>Icons/Work/React</title>
    <desc>Created with Sketch.</desc>
    <g id="Icons/Work/React" stroke="none" stroke-width="1" fill="none" fill-rule="evenodd">
        <rect id="Rectangle" x="0" y="0" width="32" height="32"></rect>
        <path d="M23.7328169,11.920966 C26.3249187,12.8132946 28,14.2110397 28,15.6563745 C28,17.1636102 26.2098748,18.637311 23.4585139,19.5489061 C23.3131389,19.5970939 23.1640471,19.6434447 23.0121787,19.6883432 C23.0663899,19.9062135 23.1146631,20.1202818 23.156144,20.3298219 C23.6992821,23.0734503 23.2809282,25.3284939 21.9936562,26.0736961 C20.7473096,26.7952314 18.7327778,26.0864692 16.6930841,24.3312458 C16.4776914,24.1458424 16.2611455,23.9481785 16.0442576,23.739322 C15.8769247,23.9010587 15.7098907,24.0553621 15.5434548,24.2008654 C13.4376738,26.0415708 11.2751183,26.805356 9.98656468,26.0622899 C8.73906466,25.3427623 8.34706891,23.2435601 8.84902511,20.5998529 C8.9019548,20.3209361 8.96500904,20.0349707 9.03750434,19.7431524 C8.81416586,19.6790729 8.59744894,19.6115759 8.38859243,19.5401912 C5.742023,18.6356022 4,17.1437456 4,15.6563745 C4,14.2162515 5.62274966,12.827862 8.16367334,11.9419841 C8.44767375,11.8430026 8.74449007,11.7499591 9.05194358,11.6626828 C8.98474553,11.3928654 8.92532246,11.1274907 8.87448605,10.8676269 C8.34805147,8.1772271 8.71847377,6.0272312 9.96930593,5.30313267 C11.2737513,4.54797693 13.4461323,5.35892456 15.6134298,7.28327514 C15.7456898,7.40071153 15.8782916,7.52348788 16.0111072,7.6505362 C16.2104371,7.45851126 16.4098526,7.27528656 16.6087127,7.10222915 C18.6766869,5.30253459 20.7242837,4.54972844 21.976312,5.2717337 C23.282039,6.02471073 23.6644228,8.31170864 23.0795904,11.1505593 C23.0439621,11.3234459 23.0038912,11.4993228 22.9602315,11.6775066 C23.2258625,11.7541884 23.4838467,11.8352703 23.7328169,11.920966 Z M23.1360658,18.5757092 C25.5116644,17.7885564 26.9747278,16.5841605 26.9747278,15.6563745 C26.9747278,14.785363 25.6200014,13.6549577 23.3990909,12.8904036 C23.1694726,12.8113295 22.9311822,12.7363992 22.6856722,12.6653564 C22.3904365,13.6206965 21.9963476,14.6301197 21.5176308,15.6613728 C22.019288,16.7177877 22.4292261,17.7402832 22.7329629,18.7018604 C22.8701785,18.6611485 23.0048309,18.619155 23.1360658,18.5757092 Z M22.150352,20.5289382 C22.1128868,20.3395619 22.0693982,20.1458708 22.0204414,19.9483778 C21.0263973,20.1781669 19.930253,20.3464825 18.7700294,20.4494369 C18.1103948,21.4043499 17.4345268,22.2641688 16.7582743,23.0037745 C16.9603384,23.1982345 17.1617617,23.3819718 17.3617325,23.5540467 C19.1061051,25.0551308 20.7235574,25.6241996 21.4799093,25.1864083 C21.835337,24.9806703 22.1227977,24.4669662 22.2657377,23.6964741 C22.4248258,22.8390048 22.3905219,21.7421343 22.150352,20.5289382 Z M12.1821425,25.1107518 C13.0044963,24.8203007 13.9376222,24.2428161 14.868783,23.428878 C15.0204378,23.2962762 15.1729471,23.1555575 15.3260544,23.0077475 C14.6252808,22.2557103 13.9298899,21.3968313 13.2658125,20.4624237 C12.102812,20.3681413 11.0146991,20.2117019 10.0315485,19.9943015 C9.96409414,20.2661696 9.90556817,20.5321421 9.85639782,20.7910662 C9.42710779,23.0519624 9.74182365,24.7374245 10.498859,25.1740623 C10.8546285,25.3792023 11.4431775,25.3717263 12.1821425,25.1107518 Z M8.72018257,18.5700274 C8.91054146,18.6350468 9.10837628,18.6968194 9.31257633,18.7555162 C9.61584332,17.7671539 10.0154005,16.7294928 10.4969794,15.6813229 C10.0215521,14.6484892 9.62759123,13.6271045 9.32727191,12.6501909 C9.04083646,12.7315719 8.76482464,12.8182074 8.50115879,12.9101401 C6.32813697,13.6677736 5.02522953,14.7824582 5.02522953,15.6563745 C5.02522953,16.0670389 5.32576247,16.5731389 5.92101844,17.0829128 C6.58347249,17.6501873 7.54991974,18.1700431 8.72018257,18.5700274 Z M9.8806626,10.6707319 C9.92786784,10.9120554 9.98318982,11.1588897 10.045646,11.4101241 C11.0390494,11.1850769 12.1195154,11.0170176 13.2482548,10.9123971 C13.9064369,9.98350049 14.5954625,9.13107205 15.2927758,8.38232428 C15.172349,8.2673229 15.052264,8.15616631 14.9326489,8.04996518 C13.0613561,6.38838333 11.2858837,5.72563027 10.4829673,6.19046308 C9.72917863,6.62680187 9.42962824,8.3656636 9.8806626,10.6707319 Z M20.2331782,13.2270347 C20.4756552,13.6459011 20.7059143,14.0626316 20.9236137,14.4759444 C21.2270943,13.7653881 21.4849074,13.0722613 21.6917562,12.4093374 C21.0027732,12.2520862 20.2691056,12.1235854 19.5033553,12.0267827 C19.7518983,12.4163434 19.9956997,12.8168404 20.2331782,13.2270347 Z M16.0114489,9.11505218 C15.5311516,9.63328457 15.0534602,10.2045321 14.5871749,10.8193964 C15.0536738,10.7976094 15.5253844,10.7863314 16.0000001,10.7863314 C16.4791439,10.7863314 16.9543576,10.7978657 17.4237615,10.8200372 C16.9579461,10.1994057 16.4843557,9.62738927 16.0114489,9.11505218 Z M11.762678,13.2341262 L11.762678,13.2340407 C12.0005411,12.8215822 12.2463502,12.4181376 12.4983963,12.0249884 C11.7375161,12.1199543 11.0073086,12.2452511 10.3225549,12.3984866 C10.5311978,13.0708088 10.7866188,13.7670969 11.0851866,14.4751755 C11.2994685,14.0599402 11.5254556,13.6454739 11.762678,13.2341262 Z M12.5203114,19.3608968 C12.261772,18.9597163 12.0098968,18.5483258 11.7667791,18.1283488 L11.7667364,18.1283488 C11.5280615,17.7161038 11.3011773,17.3014666 11.08634,16.8865304 C10.7814497,17.60986 10.5203898,18.3210144 10.3084147,19.0053409 C10.9929976,19.1543472 11.734184,19.2731933 12.5203114,19.3608968 Z M16.0398148,22.2699786 C16.5095177,21.752857 16.9813991,21.1719976 17.4487525,20.5369268 C16.9727698,20.5581158 16.4891831,20.5691375 16.0000001,20.5691375 C15.5238464,20.5691375 15.0553398,20.55991 14.5958042,20.5418823 C15.069181,21.1657178 15.5538784,21.74568 16.0398148,22.2699786 Z M20.9333965,16.8496633 C20.7139028,17.2727591 20.4817641,17.6973499 20.2372793,18.1212999 C19.9956142,18.5403372 19.7496771,18.9477121 19.5005359,19.3425274 C20.2921315,19.2475188 21.0434424,19.1196588 21.7393032,18.9609125 C21.5245941,18.2882484 21.2541785,17.5808106 20.9333965,16.8496633 Z M19.3491799,17.609091 C19.7238316,16.9593675 20.0687503,16.3088749 20.380433,15.6664138 C20.0678104,15.0348032 19.7221228,14.3908042 19.3458052,13.7407815 C18.9737168,13.0979785 18.586292,12.4802093 18.1894261,11.8943944 C17.4758794,11.8399695 16.7430234,11.8116036 16.0000001,11.8116036 L15.9999574,11.8116036 C15.2602661,11.8116036 14.5283499,11.8397559 13.8145895,11.8937109 C13.4115721,12.4838405 13.0214987,13.1036176 12.6508628,13.7463351 L12.6509482,13.7462069 C12.2812948,14.3872157 11.9400074,15.0355295 11.6300334,15.6809812 C11.9400928,16.3249375 12.2822774,16.9725251 12.6540668,17.6146873 L12.6539813,17.6146873 C13.0267532,18.258601 13.4202869,18.8814112 13.8270637,19.4752574 C14.5266411,19.5206684 15.253132,19.5438652 16.0000001,19.5438652 C16.7499012,19.5438652 17.4856622,19.5176353 18.197842,19.4667135 C18.5888551,18.8805567 18.9740158,18.2595835 19.3491799,17.609091 Z M21.4641885,6.15996123 C20.7096736,5.72486132 19.0536452,6.33365944 17.2818039,7.87562619 C17.0984084,8.03526962 16.9142439,8.20443954 16.7298229,8.38185435 C17.4157728,9.12099021 18.0991595,9.97474296 18.7586233,10.9138496 C19.8906518,11.0200507 20.9718869,11.1910149 21.9675971,11.4207613 C22.0069848,11.2593236 22.0432536,11.100022 22.0754643,10.9436252 C22.5804109,8.49258376 22.2678738,6.62342701 21.4641885,6.15996123 Z M16.0000001,13.5132565 C17.1835914,13.5132565 18.143118,14.4727405 18.143118,15.6563745 C18.143118,16.8399659 17.1835914,17.7994927 16.0000001,17.7994927 C14.8164087,17.7994927 13.856882,16.8399659 13.856882,15.6563745 C13.856882,14.4727405 14.8164087,13.5132565 16.0000001,13.5132565 Z" id="Combined-Shape" fill="#727079" fill-rule="nonzero"></path>
    </g>
</svg>